<svg width="220" height="100" viewBox="0 0 89 21" fill="none" xmlns="http://www.w3.org/2000/svg">
<g filter="url(#filter0_b)">
<path d="M16.124 14.6162C16.124 14.96 16.0632 15.3288 15.9414 15.7227C15.8268 16.1165 15.6335 16.4818 15.3613 16.8184C15.0964 17.1549 14.749 17.4378 14.3193 17.667C13.8896 17.889 13.3633 18 12.7402 18H2.1377C1.93717 18 1.75098 17.9642 1.5791 17.8926C1.40723 17.821 1.25684 17.7243 1.12793 17.6025C1.00618 17.4736 0.909505 17.3232 0.837891 17.1514C0.766276 16.9795 0.730469 16.7933 0.730469 16.5928V4.00293C0.730469 3.80957 0.766276 3.62695 0.837891 3.45508C0.909505 3.2832 1.00618 3.13281 1.12793 3.00391C1.25684 2.875 1.40723 2.77474 1.5791 2.70312C1.75098 2.63151 1.93717 2.5957 2.1377 2.5957H11.4834C11.8271 2.5957 12.196 2.65658 12.5898 2.77832C12.9837 2.90007 13.349 3.09701 13.6855 3.36914C14.0293 3.63411 14.3122 3.98145 14.5342 4.41113C14.7633 4.84082 14.8779 5.36719 14.8779 5.99023V6.5166C14.8779 7.01074 14.7956 7.54427 14.6309 8.11719C14.4661 8.68294 14.2012 9.22005 13.8359 9.72852C14.151 9.92188 14.4447 10.1546 14.7168 10.4268C14.9961 10.6989 15.2396 11.014 15.4473 11.3721C15.6549 11.7301 15.8197 12.1348 15.9414 12.5859C16.0632 13.0371 16.124 13.5348 16.124 14.0791V14.6162ZM13.3311 14.0791C13.3311 13.7139 13.2738 13.388 13.1592 13.1016C13.0446 12.8079 12.8835 12.5573 12.6758 12.3496C12.4681 12.1419 12.2174 11.9844 11.9238 11.877C11.6302 11.7624 11.3008 11.7051 10.9355 11.7051H4.64062V8.89062H9.67871C10.0439 8.89062 10.3734 8.83691 10.667 8.72949C10.9606 8.61491 11.2113 8.45378 11.4189 8.24609C11.6266 8.03841 11.7842 7.79134 11.8916 7.50488C12.0062 7.21126 12.0635 6.88184 12.0635 6.5166V5.99023C12.0635 5.58919 11.8701 5.38867 11.4834 5.38867H3.52344V15.207H12.7402C12.7904 15.207 12.8512 15.2035 12.9229 15.1963C12.9945 15.1891 13.0589 15.1676 13.1162 15.1318C13.1735 15.096 13.2236 15.0352 13.2666 14.9492C13.3096 14.8633 13.3311 14.7451 13.3311 14.5947V14.0791ZM21.0869 4.00293H18.2939V1.47852H21.0869V4.00293ZM21.0869 18H18.2939V6.3877H21.0869V18ZM35.0195 18H27.4463C27.0596 18 26.637 17.932 26.1787 17.7959C25.7204 17.6598 25.2943 17.4378 24.9004 17.1299C24.5137 16.8148 24.1878 16.4102 23.9229 15.916C23.665 15.4147 23.5361 14.8024 23.5361 14.0791V10.2979C23.5361 10.0329 23.5648 9.75358 23.6221 9.45996C23.6865 9.16634 23.7832 8.8763 23.9121 8.58984C24.041 8.29622 24.2057 8.01693 24.4062 7.75195C24.6139 7.48698 24.861 7.25423 25.1475 7.05371C25.4411 6.85319 25.7777 6.69206 26.1572 6.57031C26.5368 6.44857 26.9665 6.3877 27.4463 6.3877H35.0195V9.18066H27.4463C27.0811 9.18066 26.8018 9.27376 26.6084 9.45996C26.4222 9.64616 26.3291 9.93262 26.3291 10.3193V14.0791C26.3291 14.4443 26.4258 14.7236 26.6191 14.917C26.8125 15.1104 27.0954 15.207 27.4678 15.207H35.0195V18ZM48.4902 18H40.917C40.5303 18 40.1077 17.932 39.6494 17.7959C39.1911 17.6598 38.765 17.4378 38.3711 17.1299C37.9844 16.8148 37.6585 16.4102 37.3936 15.916C37.1357 15.4147 37.0068 14.8024 37.0068 14.0791V10.2979C37.0068 10.0329 37.0355 9.75358 37.0928 9.45996C37.1572 9.16634 37.2539 8.8763 37.3828 8.58984C37.5117 8.29622 37.6764 8.01693 37.877 7.75195C38.0846 7.48698 38.3317 7.25423 38.6182 7.05371C38.9118 6.85319 39.2484 6.69206 39.6279 6.57031C40.0075 6.44857 40.4372 6.3877 40.917 6.3877H48.4902V9.18066H40.917C40.5518 9.18066 40.2725 9.27376 40.0791 9.45996C39.8929 9.64616 39.7998 9.93262 39.7998 10.3193V14.0791C39.7998 14.4443 39.8965 14.7236 40.0898 14.917C40.2832 15.1104 40.5661 15.207 40.9385 15.207H48.4902V18ZM63.3467 14.0791C63.3467 14.5589 63.2858 14.9922 63.1641 15.3789C63.0423 15.7585 62.8812 16.0951 62.6807 16.3887C62.4801 16.6751 62.2474 16.9222 61.9824 17.1299C61.7174 17.3304 61.4382 17.4951 61.1445 17.624C60.8581 17.7529 60.5645 17.8496 60.2637 17.9141C59.9701 17.9714 59.6908 18 59.4258 18H54.3877C54.001 18 53.5785 17.932 53.1201 17.7959C52.6618 17.6598 52.2357 17.4378 51.8418 17.1299C51.4551 16.8148 51.1292 16.4102 50.8643 15.916C50.6064 15.4147 50.4775 14.8024 50.4775 14.0791V10.2979C50.4775 9.58171 50.6064 8.97656 50.8643 8.48242C51.1292 7.98112 51.4551 7.5765 51.8418 7.26855C52.2357 6.95345 52.6618 6.72786 53.1201 6.5918C53.5785 6.45573 54.001 6.3877 54.3877 6.3877H59.4258C60.1419 6.3877 60.7507 6.5166 61.252 6.77441C61.7533 7.03223 62.1579 7.35807 62.4658 7.75195C62.7738 8.13867 62.9958 8.5612 63.1318 9.01953C63.2751 9.47786 63.3467 9.90397 63.3467 10.2979V14.0791ZM60.5537 10.3193C60.5537 9.93262 60.457 9.64616 60.2637 9.45996C60.0703 9.27376 59.791 9.18066 59.4258 9.18066H54.4092C54.0368 9.18066 53.7539 9.27734 53.5605 9.4707C53.3672 9.6569 53.2705 9.93262 53.2705 10.2979V14.0791C53.2705 14.4443 53.3672 14.7236 53.5605 14.917C53.7539 15.1104 54.0368 15.207 54.4092 15.207H59.4258C59.8053 15.207 60.0882 15.1104 60.2744 14.917C60.4606 14.7236 60.5537 14.4443 60.5537 14.0791V10.3193ZM75.8398 20.5352H73.0361V0.0712891H75.8398V20.5352ZM82.3818 4.54004L87.6455 9.24512C87.7887 9.37402 87.8997 9.52799 87.9785 9.70703C88.0645 9.88607 88.1074 10.0758 88.1074 10.2764C88.1074 10.484 88.0645 10.681 87.9785 10.8672C87.8926 11.0462 87.7744 11.2002 87.624 11.3291L82.4248 15.8838H78.4072L84.8096 10.2764L78.4072 4.54004H82.3818Z" fill="#3F3D56"/>
</g>
<defs>
<filter id="filter0_b" x="-3.26953" y="-3.92871" width="95.377" height="28.4639" filterUnits="userSpaceOnUse" color-interpolation-filters="sRGB">
<feFlood flood-opacity="0" result="BackgroundImageFix"/>
<feGaussianBlur in="BackgroundImage" stdDeviation="2"/>
<feComposite in2="SourceAlpha" operator="in" result="effect1_backgroundBlur"/>
<feBlend mode="normal" in="SourceGraphic" in2="effect1_backgroundBlur" result="shape"/>
</filter>
</defs>
</svg>
